<svg xmlns="http://www.w3.org/2000/svg" xmlns:xlink="http://www.w3.org/1999/xlink" width="500" zoomAndPan="magnify" viewBox="0 0 375 225" height="300" preserveAspectRatio="xMidYMid meet" version="1.0"><defs><g/><clipPath id="fade7e1ffa"><path d="M 42.355469 97 L 79 97 L 79 133.261719 L 42.355469 133.261719 Z M 42.355469 97 " clip-rule="nonzero"/></clipPath><clipPath id="fc6f7b3a25"><path d="M 42.355469 52 L 78 52 L 78 88 L 42.355469 88 Z M 42.355469 52 " clip-rule="nonzero"/></clipPath><clipPath id="26dec32630"><path d="M 86 41.011719 L 121.855469 41.011719 L 121.855469 77 L 86 77 Z M 86 41.011719 " clip-rule="nonzero"/></clipPath><clipPath id="5a90dbaa43"><path d="M 82 164 L 85 164 L 85 180.953125 L 82 180.953125 Z M 82 164 " clip-rule="nonzero"/></clipPath><clipPath id="11963f60eb"><path d="M 81 154 L 160.5 154 L 160.5 180.953125 L 81 180.953125 Z M 81 154 " clip-rule="nonzero"/></clipPath><clipPath id="3843ab509f"><path d="M 79 166 L 82 166 L 82 180.953125 L 79 180.953125 Z M 79 166 " clip-rule="nonzero"/></clipPath><clipPath id="6d0f5916ea"><path d="M 80 149 L 154 149 L 154 180.953125 L 80 180.953125 Z M 80 149 " clip-rule="nonzero"/></clipPath><clipPath id="3a3c695f36"><path d="M 78 164 L 81 164 L 81 180.953125 L 78 180.953125 Z M 78 164 " clip-rule="nonzero"/></clipPath><clipPath id="2cbc490610"><path d="M 2.25 154 L 81 154 L 81 180.953125 L 2.25 180.953125 Z M 2.25 154 " clip-rule="nonzero"/></clipPath><clipPath id="b877761762"><path d="M 81 166 L 84 166 L 84 180.953125 L 81 180.953125 Z M 81 166 " clip-rule="nonzero"/></clipPath><clipPath id="52ac703760"><path d="M 9 149 L 83 149 L 83 180.953125 L 9 180.953125 Z M 9 149 " clip-rule="nonzero"/></clipPath><clipPath id="5dfcdb7c27"><path d="M 9 145.878906 L 154 145.878906 L 154 180.953125 L 9 180.953125 Z M 9 145.878906 " clip-rule="nonzero"/></clipPath></defs><g clip-path="url(#fade7e1ffa)"><path fill="#8c52ff" d="M 42.390625 133.261719 L 60.675781 97.738281 L 78.957031 133.261719 Z M 55.738281 125.136719 L 65.613281 125.136719 L 60.675781 115.542969 Z M 55.738281 125.136719 " fill-opacity="1" fill-rule="evenodd"/></g><g clip-path="url(#fc6f7b3a25)"><path fill="#8c52ff" d="M 77.710938 65.753906 L 77.710938 74.175781 L 64.269531 74.175781 L 64.269531 87.570312 L 55.816406 87.570312 L 55.816406 74.175781 L 42.371094 74.175781 L 42.371094 65.753906 L 55.816406 65.753906 L 55.816406 52.359375 L 64.269531 52.359375 L 64.269531 65.753906 Z M 77.710938 65.753906 " fill-opacity="1" fill-rule="evenodd"/></g><path fill="#8c52ff" d="M 96.902344 85.238281 C 107 85.238281 115.1875 93.394531 115.1875 103.453125 C 115.1875 113.515625 107 121.671875 96.902344 121.671875 C 86.804688 121.671875 78.617188 113.515625 78.617188 103.453125 C 78.617188 93.394531 86.804688 85.238281 96.902344 85.238281 Z M 96.902344 93.65625 C 91.46875 93.65625 87.066406 98.039062 87.066406 103.453125 C 87.066406 108.867188 91.46875 113.253906 96.902344 113.253906 C 102.335938 113.253906 106.738281 108.867188 106.738281 103.453125 C 106.738281 98.039062 102.335938 93.65625 96.902344 93.65625 Z M 96.902344 93.65625 " fill-opacity="1" fill-rule="evenodd"/><g clip-path="url(#26dec32630)"><path fill="#8c52ff" d="M 86.5 41.011719 L 121.839844 41.011719 L 121.839844 76.222656 L 86.5 76.222656 Z M 94.949219 49.429688 L 94.949219 67.804688 L 113.390625 67.804688 L 113.390625 49.429688 Z M 94.949219 49.429688 " fill-opacity="1" fill-rule="evenodd"/></g><g fill="#ffffff" fill-opacity="1"><g transform="translate(153.330579, 120.810986)"><g><path d="M 12.09375 0 L 12.09375 -57.703125 L 5.601562 -57.703125 L 5.601562 0 Z M 12.09375 0 "/></g></g></g><g fill="#ffffff" fill-opacity="1"><g transform="translate(171.023455, 120.810986)"><g><path d="M 42.589844 0 L 42.589844 -57.703125 L 36.988281 -57.703125 L 36.988281 -10.046875 L 13.425781 -57.703125 L 5.601562 -57.703125 L 5.601562 0 L 11.292969 0 L 11.292969 -48.457031 L 34.851562 0 Z M 42.589844 0 "/></g></g></g><g fill="#ffffff" fill-opacity="1"><g transform="translate(219.212099, 120.810986)"><g><path d="M 42.589844 0 L 42.589844 -57.703125 L 36.988281 -57.703125 L 36.988281 -10.046875 L 13.425781 -57.703125 L 5.601562 -57.703125 L 5.601562 0 L 11.292969 0 L 11.292969 -48.457031 L 34.851562 0 Z M 42.589844 0 "/></g></g></g><g fill="#ffffff" fill-opacity="1"><g transform="translate(267.400743, 120.810986)"><g><path d="M 40.898438 -42.144531 C 40.898438 -53.078125 34.765625 -58.59375 22.582031 -58.59375 C 10.492188 -58.59375 4.445312 -53.078125 4.445312 -42.054688 L 4.445312 -14.757812 C 4.445312 -4.355469 10.492188 0.890625 22.582031 0.890625 C 24.71875 0.890625 26.851562 0.710938 28.71875 0.265625 C 35.121094 -1.15625 40.898438 -4.800781 40.898438 -14.757812 Z M 22.582031 -52.992188 C 30.585938 -52.992188 34.585938 -49.433594 34.585938 -42.320312 L 34.585938 -14.847656 C 34.585938 -8.179688 30.585938 -4.890625 22.671875 -4.890625 C 14.582031 -4.890625 10.582031 -8.179688 10.582031 -14.847656 L 10.582031 -42.320312 C 10.582031 -51.035156 16.09375 -52.992188 22.582031 -52.992188 Z M 22.582031 -52.992188 "/></g></g></g><g fill="#ffffff" fill-opacity="1"><g transform="translate(312.655385, 120.810986)"><g><path d="M 42.5 -57.703125 L 36.097656 -57.703125 L 22.226562 -8.179688 L 21.605469 -8.179688 L 7.734375 -57.703125 L 0.976562 -57.703125 L 17.78125 0 L 25.25 0 Z M 42.5 -57.703125 "/></g></g></g><g fill="#ffffff" fill-opacity="1"><g transform="translate(155.580579, 153.773528)"><g><path d="M 11.953125 -15.804688 C 11.953125 -17.171875 11.496094 -18.140625 10.890625 -18.71875 C 9.921875 -19.597656 8.34375 -19.6875 6.734375 -19.6875 L 1.910156 -19.6875 L 1.910156 0 L 4.125 0 L 4.125 -7.097656 L 6.339844 -7.097656 C 8.128906 -7.097656 9.496094 -7.464844 10.464844 -8.160156 C 11.46875 -8.859375 11.953125 -10.042969 11.953125 -11.710938 Z M 9.800781 -15.441406 L 9.800781 -11.863281 C 9.800781 -10.800781 9.464844 -10.042969 8.859375 -9.617188 C 8.25 -9.160156 7.492188 -8.949219 6.613281 -8.949219 L 4.09375 -8.949219 L 4.09375 -17.839844 L 6.582031 -17.839844 C 8.160156 -17.839844 9.800781 -17.566406 9.800781 -15.441406 Z M 9.800781 -15.441406 "/></g></g></g><g fill="#ffffff" fill-opacity="1"><g transform="translate(178.756472, 153.773528)"><g><path d="M 11.375 0 L 11.375 -2.0625 L 4.125 -2.0625 L 4.125 -19.6875 L 1.910156 -19.6875 L 1.910156 0 Z M 11.375 0 "/></g></g></g><g fill="#ffffff" fill-opacity="1"><g transform="translate(200.779899, 153.773528)"><g><path d="M 14.5 0 L 8.765625 -19.6875 L 6.21875 -19.6875 L 0.332031 0 L 2.519531 0 L 4.1875 -5.976562 L 10.527344 -5.976562 L 12.195312 0 Z M 9.980469 -8.007812 L 4.761719 -8.007812 L 7.25 -16.898438 L 7.464844 -16.898438 Z M 9.980469 -8.007812 "/></g></g></g><g fill="#ffffff" fill-opacity="1"><g transform="translate(225.805799, 153.773528)"><g><path d="M 13.105469 -19.6875 L 10.585938 -19.6875 L 6.644531 -10.4375 L 2.699219 -19.6875 L 0.183594 -19.6875 L 5.519531 -7.949219 L 5.519531 0 L 7.734375 0 L 7.734375 -8.039062 Z M 13.105469 -19.6875 "/></g></g></g><g clip-path="url(#5a90dbaa43)"><path fill="#ffffff" d="M 84.351562 180.730469 L 82.429688 180.730469 C 82.429688 180.730469 82.429688 174.171875 82.429688 164.132812 C 83.28125 171.488281 83.941406 177.152344 84.296875 180.234375 C 84.316406 180.394531 84.339844 180.558594 84.351562 180.707031 Z M 84.351562 180.730469 " fill-opacity="1" fill-rule="nonzero"/></g><g clip-path="url(#11963f60eb)"><path fill="#8c52ff" d="M 160.5 172.621094 C 157.664062 175.808594 126.144531 172.082031 110.566406 173.621094 C 94.988281 175.152344 94.601562 179.867188 94.601562 179.867188 L 86.734375 180.730469 C 86.734375 180.730469 85.074219 174.269531 82.539062 164.359375 L 81.902344 161.863281 C 84.824219 152.085938 119.71875 155.011719 119.71875 155.011719 L 133.226562 160.839844 L 141.226562 164.296875 Z M 160.5 172.621094 " fill-opacity="1" fill-rule="nonzero"/></g><g clip-path="url(#3843ab509f)"><path fill="#ffffff" d="M 81.074219 180.730469 L 79.421875 180.730469 L 79.421875 180.707031 C 79.445312 180.558594 79.457031 180.394531 79.476562 180.234375 C 79.800781 177.488281 80.351562 172.695312 81.074219 166.480469 C 81.074219 175.171875 81.074219 180.730469 81.074219 180.730469 Z M 81.074219 180.730469 " fill-opacity="1" fill-rule="nonzero"/></g><g clip-path="url(#6d0f5916ea)"><path fill="#ffffff" d="M 153.277344 169.140625 C 152.738281 169.691406 151.746094 170.101562 150.410156 170.421875 C 141.636719 172.511719 117.597656 170.511719 103.796875 172.8125 C 91.042969 174.945312 87.066406 179.136719 85.988281 180.71875 L 82.722656 180.71875 C 82.734375 180.785156 82.734375 180.847656 82.742188 180.902344 C 82.734375 180.835938 82.722656 180.773438 82.710938 180.71875 L 80.792969 180.71875 C 80.792969 180.71875 80.792969 174.160156 80.792969 164.125 C 80.621094 162.679688 80.449219 161.164062 80.265625 159.601562 C 80.277344 159.589844 80.265625 159.589844 80.265625 159.578125 C 80.277344 159.558594 80.285156 159.546875 80.296875 159.527344 C 87.132812 147.324219 120.128906 149.253906 120.128906 149.253906 L 147.023438 165.394531 Z M 153.277344 169.140625 " fill-opacity="1" fill-rule="nonzero"/></g><g clip-path="url(#3a3c695f36)"><path fill="#ffffff" d="M 78.398438 180.730469 L 80.320312 180.730469 C 80.320312 180.730469 80.320312 174.171875 80.320312 164.132812 C 79.46875 171.488281 78.808594 177.152344 78.453125 180.234375 C 78.433594 180.394531 78.410156 180.558594 78.398438 180.707031 Z M 78.398438 180.730469 " fill-opacity="1" fill-rule="nonzero"/></g><g clip-path="url(#2cbc490610)"><path fill="#8c52ff" d="M 2.25 172.621094 C 5.085938 175.808594 36.605469 172.082031 52.183594 173.621094 C 67.761719 175.152344 68.148438 179.867188 68.148438 179.867188 L 76.015625 180.730469 C 76.015625 180.730469 77.675781 174.269531 80.210938 164.359375 L 80.847656 161.863281 C 77.925781 152.085938 43.03125 155.011719 43.03125 155.011719 L 29.523438 160.839844 L 21.523438 164.296875 Z M 2.25 172.621094 " fill-opacity="1" fill-rule="nonzero"/></g><g clip-path="url(#b877761762)"><path fill="#ffffff" d="M 81.675781 180.730469 L 83.324219 180.730469 L 83.324219 180.707031 C 83.304688 180.558594 83.292969 180.394531 83.273438 180.234375 C 82.949219 177.488281 82.398438 172.695312 81.675781 166.480469 C 81.675781 175.171875 81.675781 180.730469 81.675781 180.730469 Z M 81.675781 180.730469 " fill-opacity="1" fill-rule="nonzero"/></g><g clip-path="url(#52ac703760)"><path fill="#ffffff" d="M 9.460938 169.140625 C 10 169.691406 10.992188 170.101562 12.328125 170.421875 C 21.113281 172.511719 45.152344 170.511719 58.953125 172.8125 C 71.707031 174.945312 75.683594 179.136719 76.761719 180.71875 L 80.027344 180.71875 C 80.015625 180.785156 80.015625 180.847656 80.007812 180.902344 C 80.015625 180.835938 80.027344 180.773438 80.039062 180.71875 L 81.957031 180.71875 C 81.957031 180.71875 81.957031 174.160156 81.957031 164.125 C 82.128906 162.679688 82.300781 161.164062 82.484375 159.601562 C 82.496094 159.589844 82.496094 159.578125 82.507812 159.570312 C 82.496094 159.546875 82.484375 159.535156 82.472656 159.515625 C 75.617188 147.3125 42.621094 149.253906 42.621094 149.253906 L 15.714844 165.394531 Z M 9.460938 169.140625 " fill-opacity="1" fill-rule="nonzero"/></g><g clip-path="url(#5dfcdb7c27)"><path fill="#8c52ff" d="M 120.128906 145.828125 C 120.128906 145.828125 90.019531 146.496094 81.375 157.671875 C 72.730469 146.496094 42.621094 145.828125 42.621094 145.828125 L 9.472656 163.058594 C 10.390625 164.058594 12.632812 164.800781 15.726562 165.394531 C 17.222656 165.683594 18.925781 165.933594 20.769531 166.160156 C 31.894531 167.527344 48.410156 168.097656 58.953125 170.714844 C 74.875 174.65625 77.117188 180.71875 77.117188 180.71875 L 77.203125 180.738281 L 77.808594 180.738281 C 77.796875 180.804688 77.796875 180.871094 77.785156 180.921875 C 77.796875 180.859375 77.808594 180.792969 77.816406 180.738281 L 80.039062 180.738281 C 80.027344 180.804688 80.027344 180.871094 80.015625 180.921875 C 80.027344 180.859375 80.039062 180.792969 80.050781 180.738281 L 82.742188 180.738281 C 82.753906 180.804688 82.765625 180.871094 82.777344 180.921875 C 82.765625 180.859375 82.753906 180.792969 82.753906 180.738281 L 84.976562 180.738281 C 84.984375 180.804688 84.996094 180.871094 85.007812 180.921875 C 84.996094 180.859375 84.984375 180.792969 84.984375 180.738281 L 85.589844 180.738281 L 85.675781 180.71875 C 85.675781 180.71875 87.917969 174.667969 103.839844 170.714844 C 114.382812 168.109375 130.910156 167.539062 142.023438 166.160156 C 143.878906 165.933594 145.570312 165.683594 147.066406 165.394531 C 150.160156 164.800781 152.394531 164.070312 153.320312 163.058594 Z M 120.128906 145.828125 " fill-opacity="1" fill-rule="nonzero"/></g></svg>